<svg id="Capa_1" data-name="Capa 1" xmlns="http://www.w3.org/2000/svg" viewBox="0 0 627 158.44"><defs><style>.cls-1{fill:#191919;}.cls-2{fill:#3799db;}.cls-3{fill:#68aee4;}.cls-4{fill:#181818;}</style></defs><title>RENEW LOGOTIPO</title><path class="cls-1" d="M234.39,157.69l-.09-39.5-19.38,32.54h-6.86L188.77,119v38.66H174.48V91.85h12.6l24.65,40.92L236,91.85H248.5l.19,65.84Z"/><path class="cls-1" d="M273,155.11a24.82,24.82,0,0,1-9.93-9.27,27.12,27.12,0,0,1,0-26.9,24.82,24.82,0,0,1,9.93-9.27,32.37,32.37,0,0,1,28.64,0,24.92,24.92,0,0,1,9.87,9.27,27.06,27.06,0,0,1,0,26.9,24.92,24.92,0,0,1-9.87,9.27,32.46,32.46,0,0,1-28.64,0Zm23.6-12.51q3.63-3.81,3.63-10.21t-3.63-10.21a12.21,12.21,0,0,0-9.26-3.81,12.36,12.36,0,0,0-9.31,3.81q-3.68,3.81-3.67,10.21T278,142.6a12.39,12.39,0,0,0,9.31,3.8A12.24,12.24,0,0,0,296.61,142.6Z"/><path class="cls-1" d="M367.63,109.58a23.35,23.35,0,0,1,9.08,9.12,30.13,30.13,0,0,1,0,27.38,23.28,23.28,0,0,1-9.08,9.12,25.84,25.84,0,0,1-12.84,3.24q-10.44,0-15.9-6.58v5.83h-14V87.9h14.67v24.55q5.55-6.12,15.24-6.12A25.85,25.85,0,0,1,367.63,109.58Zm-6.11,33q3.62-3.81,3.62-10.21t-3.62-10.21a13.17,13.17,0,0,0-18.53,0q-3.63,3.81-3.63,10.21T343,142.6a13.19,13.19,0,0,0,18.53,0Z"/><path class="cls-1" d="M390.53,97.68a8,8,0,0,1,0-11.66,9.32,9.32,0,0,1,6.59-2.35,9.55,9.55,0,0,1,6.58,2.25,7.26,7.26,0,0,1,2.54,5.65,8,8,0,0,1-2.54,6.06,9.19,9.19,0,0,1-6.58,2.4A9.32,9.32,0,0,1,390.53,97.68Zm-.75,9.41h14.67v50.6H389.78Z"/><path class="cls-1" d="M418.09,87.9h14.68v69.79H418.09Z"/><path class="cls-1" d="M451.11,156.89a32.06,32.06,0,0,1-9.6-3.9l4.9-10.54a30.41,30.41,0,0,0,8.18,3.53,34.26,34.26,0,0,0,9.4,1.37q9.31,0,9.32-4.61c0-1.45-.85-2.48-2.54-3.11A38.32,38.32,0,0,0,463,138a73.31,73.31,0,0,1-10.25-2.16,15.82,15.82,0,0,1-7-4.33c-2-2.07-3-5-3-8.84a13.84,13.84,0,0,1,2.77-8.51,17.87,17.87,0,0,1,8.09-5.79,34.75,34.75,0,0,1,12.56-2.07,49.48,49.48,0,0,1,10.67,1.18,29.68,29.68,0,0,1,8.8,3.25l-4.89,10.44a29.2,29.2,0,0,0-14.58-3.77q-4.71,0-7.06,1.32a3.89,3.89,0,0,0-2.35,3.39,3.36,3.36,0,0,0,2.54,3.29,45.09,45.09,0,0,0,8.09,1.79,85.21,85.21,0,0,1,10.16,2.21,15.2,15.2,0,0,1,6.86,4.28q2.93,3.1,2.92,8.65a13.34,13.34,0,0,1-2.82,8.37,18,18,0,0,1-8.23,5.69,36.67,36.67,0,0,1-12.84,2A48.89,48.89,0,0,1,451.11,156.89Z"/><path class="cls-1" d="M506.09,155.11a24.82,24.82,0,0,1-9.93-9.27,27.12,27.12,0,0,1,0-26.9,24.82,24.82,0,0,1,9.93-9.27,32.37,32.37,0,0,1,28.64,0,24.92,24.92,0,0,1,9.87,9.27,27.06,27.06,0,0,1,0,26.9,24.92,24.92,0,0,1-9.87,9.27,32.46,32.46,0,0,1-28.64,0ZM529.7,142.6q3.62-3.81,3.62-10.21t-3.62-10.21a13.23,13.23,0,0,0-18.58,0q-3.67,3.81-3.67,10.21t3.67,10.21a13.26,13.26,0,0,0,18.58,0Z"/><path class="cls-1" d="M574,108.22h13V119.5H574.42v38.19H559.75V119.5h-7.81V108.22h7.81V106q0-8.65,5.12-13.73t14.44-5.08a27,27,0,0,1,6.26.7,15.46,15.46,0,0,1,4.94,2l-3.86,10.63a10,10,0,0,0-5.93-1.78q-6.68,0-6.68,7.33Z"/><path class="cls-1" d="M627,155.25a15.37,15.37,0,0,1-5.31,2.4,27.14,27.14,0,0,1-6.64.79q-9,0-14-4.6t-4.94-13.55V119.5H574V108.22h22.12V95.89h14.67v12.33h12.61V119.5H610.82v20.6a6.89,6.89,0,0,0,1.65,4.94,6.09,6.09,0,0,0,4.65,1.74,9.47,9.47,0,0,0,5.93-1.88Z"/><path class="cls-2" d="M126.27,70.81l-.6-.1c-14.31-2.09-32,.76-49.71,8.05-17.14,7-31.8,18.3-40.74,30.9C39.93,92,48.79,70.14,55.37,56.07,67.28,30.63,99.13-6.37,120.06.94,131.57,5,134.1,41.31,126.27,70.81Z"/><path class="cls-3" d="M102.5,149c-33.67,13.82-64.68,7.13-71.13-8.6-2-4.93-1.56-11.12,1.08-17.72,5.76-14.44,21.9-30.86,45-40.33,17.16-7,34.2-9.77,47.64-7.79,12.95,1.89,22.57,8.14,25.74,19.08C155.57,110,136.17,135.22,102.5,149Z"/><path class="cls-4" d="M39.11,158.43h-.2s-20.1-6.93-22.32-26c-1.38-11.85,5.12-11.72,6.76-10.5a5.19,5.19,0,0,1,1.39,1.47c1,1.56,1.5,4.2-.27,9-2.33,6.28,6.35,18.71,13.21,24.83C38.16,157.65,38.64,158.06,39.11,158.43Z"/><path class="cls-4" d="M18.28,120.36S9,102.9,17.75,90.61c6.76-7.71,10.12-3.26,10-1.23s-5.39,5.27-6.94,8.22A38.13,38.13,0,0,0,18.28,120.36Z"/><path class="cls-4" d="M16.48,122.56S3.74,114.63.92,105.76s1.34-14.12,5.4-12.15-.59,8.75-.08,11.52S9,116.61,16.48,122.56Z"/></svg>